<?xml version="1.0" encoding="UTF-8"?>
<svg width="100px" height="100px" viewBox="0 0 100 100" version="1.1" xmlns="http://www.w3.org/2000/svg" xmlns:xlink="http://www.w3.org/1999/xlink">
    <!-- Generator: Sketch 51.3 (57544) - http://www.bohemiancoding.com/sketch -->
    <title>svg_0</title>
    <desc>Created with Sketch.</desc>
    <defs></defs>
    <g id="svg_0" stroke="none" stroke-width="1" fill="none" fill-rule="evenodd">
        <path d="M88.744514,70.4353587 C86.1531829,65.4612596 82.3062971,61.4822026 77.3156346,58.6115131 C75.3903029,57.4984793 73.5725266,56.9571835 71.7583059,56.9571835 C71.0525287,56.9571835 70.3445293,57.0422887 69.649641,57.209166 C67.3456429,57.7675717 65.1327558,58.8452746 62.8847577,60.504715 C62.1749805,61.0284564 61.306759,61.2937713 60.3038709,61.2937713 C59.082983,61.2937713 57.7607619,60.8746893 56.8554293,60.2002916 C50.2834348,55.3012985 44.7065505,49.7252413 39.8083323,43.1545865 C38.845222,41.861343 38.0818893,39.0502048 39.5025548,37.124783 C41.1625534,34.8764947 42.2407748,32.6635373 42.7996632,30.3561419 C43.3983294,27.8696479 42.9394409,25.363822 41.3996643,22.7000069 C38.5252223,17.7036872 34.54567,13.8572877 29.572563,11.2665787 C27.9610088,10.426637 26.3118991,10 24.6712338,10 C21.9274582,10 19.3594604,11.191695 17.2461288,13.4439831 C15.3034637,15.5111728 13.5859096,17.7001319 11.6041335,20.3506145 C9.79013496,22.7791126 9.93969039,25.5804736 10.0719125,28.0520797 L10.0752458,28.1047427 C10.2979123,31.2396361 11.4690225,34.9496007 13.6552429,39.4428442 C17.3536843,47.0483161 22.606791,54.2700368 29.7132296,61.5199778 C31.1730061,63.0105409 36.9947791,68.8321367 38.4863334,70.2918131 C45.7383274,77.3999861 52.9605437,82.652288 60.565204,86.3500312 C65.059867,88.5363239 68.768975,89.7069092 71.9049724,89.9300049 L71.957639,89.933338 C72.6027496,89.96778 73.2923046,90 73.9634152,90 C73.9636374,90 73.9636374,90 73.9636374,90 C75.6194138,90 77.7629676,89.8182348 79.6594104,88.4005555 C82.3107416,86.4193598 84.5002953,84.7017013 86.5647381,82.7613916 C90.1845128,79.3658496 90.9989566,74.757503 88.744514,70.4353587 Z" id="Shape" fill="#8B5E3B" fill-rule="nonzero"></path>
    </g>
</svg>