<?xml version="1.0" encoding="UTF-8"?>
<svg width="100px" height="100px" viewBox="0 0 100 100" version="1.1" xmlns="http://www.w3.org/2000/svg" xmlns:xlink="http://www.w3.org/1999/xlink">
    <!-- Generator: Sketch 51 (57462) - http://www.bohemiancoding.com/sketch -->
    <title>svg_0</title>
    <desc>Created with Sketch.</desc>
    <defs></defs>
    <g id="svg_0" stroke="none" stroke-width="1" fill="none" fill-rule="evenodd">
        <g id="facebook-logo" transform="translate(26.000000, 5.000000)" fill="#8B5E3B" fill-rule="nonzero">
            <path d="M46.1924609,0.0187260073 L34.6794435,0 C21.7449633,0 13.386134,8.69354889 13.386134,22.1491214 L13.386134,32.3613495 L1.81030999,32.3613495 C0.810021359,32.3613495 0,33.1834212 0,34.1974345 L0,48.9937892 C0,50.0078025 0.810944986,50.8289379 1.81030999,50.8289379 L13.386134,50.8289379 L13.386134,88.1648513 C13.386134,89.1788646 14.1961554,90 15.196444,90 L30.2996017,90 C31.2998903,90 32.1099117,89.1779283 32.1099117,88.1648513 L32.1099117,50.8289379 L45.6447498,50.8289379 C46.6450384,50.8289379 47.4550597,50.0078025 47.4550597,48.9937892 L47.4606015,34.1974345 C47.4606015,33.7105583 47.2694106,33.2442808 46.9304393,32.8997222 C46.591468,32.5551637 46.1296542,32.3613495 45.6493679,32.3613495 L32.1099117,32.3613495 L32.1099117,23.7043163 C32.1099117,19.5433975 33.0880333,17.4311039 38.4349131,17.4311039 L46.1906136,17.428295 C47.1899786,17.428295 48,16.6062233 48,15.5931463 L48,1.85387472 C48,0.841734028 47.1909023,0.020598608 46.1924609,0.0187260073 Z" id="Shape"></path>
        </g>
    </g>
</svg>