<?xml version="1.0" encoding="UTF-8"?>
<svg width="100px" height="100px" viewBox="0 0 100 100" version="1.1" xmlns="http://www.w3.org/2000/svg" xmlns:xlink="http://www.w3.org/1999/xlink">
    <!-- Generator: Sketch 51.3 (57544) - http://www.bohemiancoding.com/sketch -->
    <title>svg_0</title>
    <desc>Created with Sketch.</desc>
    <defs></defs>
    <g id="svg_0" stroke="none" stroke-width="1" fill="none" fill-rule="evenodd">
        <path d="M88.8123384,45.2022748 L30.941994,45.2318746 L49.1768539,26.9568435 C50.0697799,26.0646222 50.5595855,24.8559655 50.5595855,23.5874044 C50.5595855,22.3188434 50.0697799,21.1186437 49.1768539,20.2243082 L46.3395058,17.3855505 C45.4472845,16.4933293 44.2583609,16 42.9905047,16 C41.7219436,16 40.5323153,16.4898055 39.6400941,17.3820268 L8.38204564,48.6372561 C7.48630061,49.5330012 6.9964951,50.7261533 7.00001888,51.9954191 C6.9964951,53.2717324 7.48630061,54.4655893 8.38204564,55.3599248 L39.6400941,86.6179732 C40.5323153,87.5094897 41.7212389,88 42.9905047,88 C44.2583609,88 45.4472845,87.508785 46.3395058,86.6179732 L49.1768539,83.7792156 C50.0697799,82.8884038 50.5595855,81.6987755 50.5595855,80.4302145 C50.5595855,79.1623582 50.0697799,78.0354531 49.1768539,77.1439367 L30.7362052,58.7667159 L88.877176,58.7667159 C91.4897069,58.7667159 93.6850223,56.5150201 93.6850223,53.9038987 L93.6850223,49.888903 C93.6850223,47.2777816 91.4248694,45.2022748 88.8123384,45.2022748 Z" id="Shape" fill="#fff" fill-rule="nonzero" transform="translate(50.342511, 52.000000) rotate(-180.000000) translate(-50.342511, -52.000000) "></path>
    </g>
</svg>