<?xml version="1.0" encoding="UTF-8"?>
<svg width="100px" height="100px" viewBox="0 0 100 100" version="1.1" xmlns="http://www.w3.org/2000/svg" xmlns:xlink="http://www.w3.org/1999/xlink">
    <!-- Generator: Sketch 51 (57462) - http://www.bohemiancoding.com/sketch -->
    <title>svg_0</title>
    <desc>Created with Sketch.</desc>
    <defs></defs>
    <g id="svg_0" stroke="none" stroke-width="1" fill="none" fill-rule="evenodd">
        <path d="M84.3180099,16 L15.6822256,16 C9.79209247,16 5,20.5443136 5,26.1298725 L5,73.3701275 C5,78.9556864 9.79209247,83.5 15.6822256,83.5 L84.3180099,83.5 C90.2081431,83.5 95,78.9556864 95,73.3701275 L95,26.1298725 C95,20.5443136 90.2081431,16 84.3180099,16 Z M84.3180099,74.5569658 L15.6822256,74.5569658 C14.8164175,74.5569658 14.0570689,74.0025032 14.0570689,73.3701275 L14.0570689,32.3766466 L45.0992105,58.2554414 C45.7356124,58.7861812 46.5448933,59.0782973 47.3781983,59.0782973 L52.6208596,59.0785299 C53.4536935,59.0785299 54.2634455,58.7861812 54.900083,58.2554414 L85.9436377,32.3757162 L85.9436377,73.3705927 C85.9431666,74.0025032 85.1835825,74.5569658 84.3180099,74.5569658 Z M50.0001178,50.1985239 L19.8077683,24.9430342 L80.1924672,24.9430342 L50.0001178,50.1985239 Z" id="Shape" fill="#8B5E3B" fill-rule="nonzero"></path>
    </g>
</svg>